<mxfile host="app.diagrams.net" agent="Mozilla/5.0 (Windows NT 10.0; Win64; x64) AppleWebKit/537.36 (KHTML, like Gecko) Chrome/130.0.0.0 Safari/537.36 Edg/130.0.0.0" version="24.8.3">
  <diagram name="Page-1" id="e7e014a7-5840-1c2e-5031-d8a46d1fe8dd">
    <mxGraphModel dx="780" dy="1594" grid="1" gridSize="10" guides="1" tooltips="1" connect="1" arrows="1" fold="1" page="1" pageScale="1" pageWidth="1654" pageHeight="1169" background="none" math="0" shadow="0">
      <root>
        <mxCell id="0" />
        <mxCell id="1" parent="0" />
        <mxCell id="2" value="Khách Hàng" style="swimlane;whiteSpace=wrap" parent="1" vertex="1">
          <mxGeometry x="164.5" y="128" width="280" height="962" as="geometry" />
        </mxCell>
        <mxCell id="5" value="" style="ellipse;shape=startState;fillColor=#000000;strokeColor=#ff0000;" parent="2" vertex="1">
          <mxGeometry x="100" y="40" width="30" height="30" as="geometry" />
        </mxCell>
        <mxCell id="6" value="" style="edgeStyle=elbowEdgeStyle;elbow=horizontal;verticalAlign=bottom;endArrow=open;endSize=8;strokeColor=#FF0000;endFill=1;rounded=0;exitX=0.531;exitY=0.819;exitDx=0;exitDy=0;exitPerimeter=0;" parent="2" source="5" target="7" edge="1">
          <mxGeometry x="100" y="40" as="geometry">
            <mxPoint x="115" y="110" as="targetPoint" />
          </mxGeometry>
        </mxCell>
        <mxCell id="7" value="Đăng ký thuê phòng" style="rounded=1;fontFamily=Helvetica;" parent="2" vertex="1">
          <mxGeometry x="60" y="102" width="110" height="50" as="geometry" />
        </mxCell>
        <mxCell id="8" value="Cung cấp thông tin&#xa; khách hàng" style="glass=0;rounded=1;" parent="2" vertex="1">
          <mxGeometry x="60" y="182" width="110" height="50" as="geometry" />
        </mxCell>
        <mxCell id="10" value="Chọn Phòng" style="rounded=1;" parent="2" vertex="1">
          <mxGeometry x="60" y="325" width="110" height="50" as="geometry" />
        </mxCell>
        <mxCell id="Oine3e35hys3R5oxJuXR-44" value="" style="ellipse;shape=endState;fillColor=#000000;strokeColor=#ff0000" vertex="1" parent="2">
          <mxGeometry x="100" y="882" width="30" height="30" as="geometry" />
        </mxCell>
        <mxCell id="Oine3e35hys3R5oxJuXR-76" value="Nhận Phòng" style="rounded=1;" vertex="1" parent="2">
          <mxGeometry x="60" y="662" width="110" height="50" as="geometry" />
        </mxCell>
        <mxCell id="Oine3e35hys3R5oxJuXR-77" value="" style="endArrow=classic;html=1;rounded=0;entryX=0.5;entryY=0;entryDx=0;entryDy=0;exitX=0.5;exitY=1;exitDx=0;exitDy=0;strokeColor=#FF052F;" edge="1" parent="2" source="Oine3e35hys3R5oxJuXR-76" target="Oine3e35hys3R5oxJuXR-44">
          <mxGeometry width="50" height="50" relative="1" as="geometry">
            <mxPoint x="185.5" y="492" as="sourcePoint" />
            <mxPoint x="235.5" y="442" as="targetPoint" />
          </mxGeometry>
        </mxCell>
        <mxCell id="3" value="Nhân VIên" style="swimlane;whiteSpace=wrap" parent="1" vertex="1">
          <mxGeometry x="445" y="128" width="315" height="962" as="geometry" />
        </mxCell>
        <mxCell id="15" value="Kiểm tra phòng &#xa;trống" style="rounded=1;" parent="3" vertex="1">
          <mxGeometry x="85" y="102" width="110" height="50" as="geometry" />
        </mxCell>
        <mxCell id="16" value="Nhập thông tin &#xa;khách hàng" style="rounded=1;" parent="3" vertex="1">
          <mxGeometry x="85" y="252" width="110" height="50" as="geometry" />
        </mxCell>
        <mxCell id="Oine3e35hys3R5oxJuXR-72" value="" style="edgeStyle=orthogonalEdgeStyle;rounded=0;orthogonalLoop=1;jettySize=auto;html=1;labelBackgroundColor=#FF031C;fontColor=#ff0000;strokeColor=#ff0000;" edge="1" parent="3" source="18" target="30">
          <mxGeometry relative="1" as="geometry" />
        </mxCell>
        <mxCell id="18" value="Lập phiếu thuê" style="rounded=1;" parent="3" vertex="1">
          <mxGeometry x="85" y="392" width="110" height="50" as="geometry" />
        </mxCell>
        <mxCell id="Oine3e35hys3R5oxJuXR-73" value="" style="edgeStyle=orthogonalEdgeStyle;rounded=0;orthogonalLoop=1;jettySize=auto;html=1;strokeColor=#FF0019;" edge="1" parent="3" source="30" target="Oine3e35hys3R5oxJuXR-68">
          <mxGeometry relative="1" as="geometry" />
        </mxCell>
        <mxCell id="30" value="In và sao lưu phiếu" style="rounded=1;" parent="3" vertex="1">
          <mxGeometry x="85" y="482" width="110" height="50" as="geometry" />
        </mxCell>
        <mxCell id="Oine3e35hys3R5oxJuXR-60" value="Không còn trống" style="text;html=1;align=center;verticalAlign=middle;whiteSpace=wrap;rounded=0;" vertex="1" parent="3">
          <mxGeometry x="215" y="102" width="100" height="30" as="geometry" />
        </mxCell>
        <mxCell id="Oine3e35hys3R5oxJuXR-62" value="Còn trống" style="text;html=1;align=center;verticalAlign=middle;whiteSpace=wrap;rounded=0;" vertex="1" parent="3">
          <mxGeometry x="5" y="172" width="100" height="30" as="geometry" />
        </mxCell>
        <mxCell id="Oine3e35hys3R5oxJuXR-74" value="" style="edgeStyle=orthogonalEdgeStyle;rounded=0;orthogonalLoop=1;jettySize=auto;html=1;strokeColor=#FF0516;" edge="1" parent="3" source="Oine3e35hys3R5oxJuXR-68" target="Oine3e35hys3R5oxJuXR-69">
          <mxGeometry relative="1" as="geometry" />
        </mxCell>
        <mxCell id="Oine3e35hys3R5oxJuXR-68" value="Giao phiếu thuê" style="rounded=1;" vertex="1" parent="3">
          <mxGeometry x="85" y="572" width="110" height="50" as="geometry" />
        </mxCell>
        <mxCell id="Oine3e35hys3R5oxJuXR-69" value="Giao chìa khóa" style="rounded=1;" vertex="1" parent="3">
          <mxGeometry x="85" y="662" width="110" height="50" as="geometry" />
        </mxCell>
        <mxCell id="4" value="Hệ Thống" style="swimlane;whiteSpace=wrap;fontColor=#000000;" parent="1" vertex="1">
          <mxGeometry x="760" y="128" width="280" height="962" as="geometry" />
        </mxCell>
        <mxCell id="Oine3e35hys3R5oxJuXR-52" value="" style="ellipse;shape=endState;fillColor=#000000;strokeColor=#ff0000" vertex="1" parent="4">
          <mxGeometry x="125" y="112" width="30" height="30" as="geometry" />
        </mxCell>
        <mxCell id="Oine3e35hys3R5oxJuXR-55" value="Kiểm tra thông&amp;nbsp;&lt;div&gt;tiin khách hàng&lt;/div&gt;" style="rounded=1;whiteSpace=wrap;html=1;" vertex="1" parent="4">
          <mxGeometry x="86.25" y="252" width="107.5" height="50" as="geometry" />
        </mxCell>
        <mxCell id="Oine3e35hys3R5oxJuXR-57" value="" style="endArrow=open;strokeColor=#FF0000;endFill=1;rounded=0;exitX=1;exitY=0.5;exitDx=0;exitDy=0;" edge="1" parent="4" source="15">
          <mxGeometry relative="1" as="geometry">
            <mxPoint x="-94.5" y="126" as="sourcePoint" />
            <mxPoint x="125.5" y="126" as="targetPoint" />
          </mxGeometry>
        </mxCell>
        <mxCell id="Oine3e35hys3R5oxJuXR-64" value="Không hoàn tất" style="text;html=1;align=center;verticalAlign=middle;whiteSpace=wrap;rounded=0;" vertex="1" parent="4">
          <mxGeometry x="160" y="112" width="100" height="30" as="geometry" />
        </mxCell>
        <mxCell id="Oine3e35hys3R5oxJuXR-67" value="" style="endArrow=open;strokeColor=#FF0000;endFill=1;rounded=0;exitX=0.5;exitY=1;exitDx=0;exitDy=0;entryX=0.5;entryY=0;entryDx=0;entryDy=0;" edge="1" parent="4" source="Oine3e35hys3R5oxJuXR-52" target="Oine3e35hys3R5oxJuXR-55">
          <mxGeometry relative="1" as="geometry">
            <mxPoint x="20" y="182" as="sourcePoint" />
            <mxPoint x="-27" y="312" as="targetPoint" />
          </mxGeometry>
        </mxCell>
        <mxCell id="Oine3e35hys3R5oxJuXR-70" value="Hợp lệ" style="text;html=1;align=center;verticalAlign=middle;whiteSpace=wrap;rounded=0;" vertex="1" parent="4">
          <mxGeometry x="150" y="312" width="60" height="30" as="geometry" />
        </mxCell>
        <mxCell id="20" value="" style="endArrow=open;strokeColor=#FF0000;endFill=1;rounded=0;exitX=0.5;exitY=1;exitDx=0;exitDy=0;entryX=0.003;entryY=0.576;entryDx=0;entryDy=0;entryPerimeter=0;" parent="1" source="10" target="18" edge="1">
          <mxGeometry relative="1" as="geometry">
            <mxPoint x="280" y="510" as="sourcePoint" />
            <Array as="points">
              <mxPoint x="280" y="550" />
            </Array>
          </mxGeometry>
        </mxCell>
        <mxCell id="9" value="" style="endArrow=open;strokeColor=#FF0000;endFill=1;rounded=0;exitX=1;exitY=0.5;exitDx=0;exitDy=0;entryX=0;entryY=0.5;entryDx=0;entryDy=0;" parent="1" source="7" target="15" edge="1">
          <mxGeometry relative="1" as="geometry" />
        </mxCell>
        <mxCell id="11" value="" style="endArrow=open;strokeColor=#FF0000;endFill=1;rounded=0;" parent="1" source="8" edge="1">
          <mxGeometry relative="1" as="geometry">
            <mxPoint x="530" y="400" as="targetPoint" />
            <Array as="points">
              <mxPoint x="280" y="400" />
            </Array>
          </mxGeometry>
        </mxCell>
        <mxCell id="17" value="" style="endArrow=open;strokeColor=#FF0000;endFill=1;rounded=0;entryX=1.007;entryY=0.373;entryDx=0;entryDy=0;entryPerimeter=0;exitX=0.5;exitY=1;exitDx=0;exitDy=0;" parent="1" source="15" target="8" edge="1">
          <mxGeometry relative="1" as="geometry">
            <mxPoint x="585" y="290" as="sourcePoint" />
            <mxPoint x="330" y="335" as="targetPoint" />
            <Array as="points">
              <mxPoint x="585" y="330" />
            </Array>
          </mxGeometry>
        </mxCell>
        <mxCell id="Oine3e35hys3R5oxJuXR-65" value="" style="endArrow=open;strokeColor=#FF0000;endFill=1;rounded=0;entryX=0.01;entryY=0.4;entryDx=0;entryDy=0;exitX=0.997;exitY=0.4;exitDx=0;exitDy=0;entryPerimeter=0;exitPerimeter=0;" edge="1" parent="1" source="16" target="Oine3e35hys3R5oxJuXR-55">
          <mxGeometry relative="1" as="geometry">
            <mxPoint x="650" y="400" as="sourcePoint" />
            <mxPoint x="840" y="410" as="targetPoint" />
          </mxGeometry>
        </mxCell>
        <mxCell id="19" value="" style="endArrow=open;strokeColor=#FF0000;endFill=1;rounded=0;exitX=0.5;exitY=1;exitDx=0;exitDy=0;entryX=1;entryY=0.5;entryDx=0;entryDy=0;" parent="1" source="Oine3e35hys3R5oxJuXR-55" target="10" edge="1">
          <mxGeometry relative="1" as="geometry">
            <Array as="points">
              <mxPoint x="900" y="478" />
            </Array>
          </mxGeometry>
        </mxCell>
        <mxCell id="Oine3e35hys3R5oxJuXR-75" value="" style="endArrow=classic;html=1;rounded=0;strokeColor=#ff0000;entryX=1;entryY=0.5;entryDx=0;entryDy=0;exitX=0;exitY=0.5;exitDx=0;exitDy=0;" edge="1" parent="1" source="Oine3e35hys3R5oxJuXR-69" target="Oine3e35hys3R5oxJuXR-76">
          <mxGeometry width="50" height="50" relative="1" as="geometry">
            <mxPoint x="380" y="850" as="sourcePoint" />
            <mxPoint x="530" y="814.47" as="targetPoint" />
          </mxGeometry>
        </mxCell>
      </root>
    </mxGraphModel>
  </diagram>
</mxfile>
